<svg width="214" height="162" viewBox="0 0 214 162" fill="none" xmlns="http://www.w3.org/2000/svg">
<g clip-path="url(#clip0_1_1062)">
<path d="M107.425 0H12.1803C8.951 0.00363365 5.855 1.28719 3.57154 3.56907C1.28807 5.85094 0.00362813 8.94479 0 12.1718V123.931C0.00362881 127.158 1.28807 130.252 3.57154 132.534C5.855 134.816 8.951 136.1 12.1803 136.103H107.425C110.655 136.1 113.751 134.816 116.034 132.534C118.318 130.252 119.602 127.158 119.606 123.931V12.1718C119.602 8.94479 118.318 5.85094 116.034 3.56907C113.751 1.28719 110.655 0.00363365 107.425 0Z" fill="#F2F2F2"/>
<path d="M107.426 3.504H12.1804C9.8807 3.50657 7.67596 4.42061 6.04985 6.04559C4.42374 7.67057 3.50905 9.87377 3.50647 12.1718V123.931C3.50905 126.229 4.42374 128.433 6.04985 130.058C7.67596 131.683 9.8807 132.597 12.1804 132.599H107.426C109.725 132.597 111.93 131.683 113.556 130.058C115.182 128.433 116.097 126.229 116.099 123.931V12.1718C116.097 9.87379 115.182 7.6706 113.556 6.04562C111.93 4.42065 109.725 3.5066 107.426 3.504Z" fill="white"/>
<path d="M93.0911 36.0007H44.9263C44.3883 36.0007 43.8724 35.7872 43.492 35.407C43.1116 35.0269 42.8979 34.5114 42.8979 33.9738C42.8979 33.4362 43.1116 32.9206 43.492 32.5405C43.8724 32.1604 44.3883 31.9468 44.9263 31.9468H93.0911C93.3575 31.9468 93.6213 31.9993 93.8674 32.1011C94.1135 32.203 94.3371 32.3523 94.5254 32.5405C94.7138 32.7287 94.8632 32.9522 94.9651 33.1981C95.067 33.444 95.1195 33.7076 95.1195 33.9738C95.1195 34.24 95.067 34.5035 94.9651 34.7495C94.8632 34.9954 94.7138 35.2188 94.5254 35.407C94.3371 35.5953 94.1135 35.7446 93.8674 35.8464C93.6213 35.9483 93.3575 36.0007 93.0911 36.0007Z" fill="#F2F2F2"/>
<path d="M101.458 42.8416H44.9262C44.3887 42.841 43.8733 42.6272 43.4934 42.2471C43.1135 41.8671 42.9001 41.3518 42.9001 40.8147C42.9001 40.2775 43.1135 39.7623 43.4934 39.3822C43.8733 39.0021 44.3887 38.7883 44.9262 38.7877H101.458C101.996 38.7883 102.511 39.0021 102.891 39.3822C103.271 39.7623 103.484 40.2775 103.484 40.8147C103.484 41.3518 103.271 41.8671 102.891 42.2471C102.511 42.6272 101.996 42.841 101.458 42.8416Z" fill="#F2F2F2"/>
<path d="M93.0911 66.6581H44.9263C44.3883 66.6581 43.8724 66.4445 43.492 66.0644C43.1116 65.6843 42.8979 65.1687 42.8979 64.6312C42.8979 64.0936 43.1116 63.578 43.492 63.1979C43.8724 62.8178 44.3883 62.6042 44.9263 62.6042H93.0911C93.3575 62.6042 93.6213 62.6566 93.8674 62.7585C94.1135 62.8604 94.3371 63.0097 94.5254 63.1979C94.7138 63.3861 94.8632 63.6096 94.9651 63.8555C95.067 64.1014 95.1195 64.365 95.1195 64.6312C95.1195 64.8973 95.067 65.1609 94.9651 65.4068C94.8632 65.6528 94.7138 65.8762 94.5254 66.0644C94.3371 66.2526 94.1135 66.4019 93.8674 66.5038C93.6213 66.6057 93.3575 66.6581 93.0911 66.6581Z" fill="#F2F2F2"/>
<path d="M101.458 73.499H44.9262C44.3887 73.4984 43.8733 73.2846 43.4934 72.9045C43.1135 72.5245 42.9001 72.0093 42.9001 71.4721C42.9001 70.9349 43.1135 70.4197 43.4934 70.0396C43.8733 69.6595 44.3887 69.4457 44.9262 69.4451H101.458C101.996 69.4457 102.511 69.6595 102.891 70.0396C103.271 70.4197 103.484 70.9349 103.484 71.4721C103.484 72.0093 103.271 72.5245 102.891 72.9045C102.511 73.2846 101.996 73.4984 101.458 73.499Z" fill="#F2F2F2"/>
<path d="M93.0911 97.3155H44.9263C44.3883 97.3155 43.8724 97.1019 43.492 96.7218C43.1116 96.3417 42.8979 95.8261 42.8979 95.2886C42.8979 94.751 43.1116 94.2354 43.492 93.8553C43.8724 93.4752 44.3883 93.2616 44.9263 93.2616H93.0911C93.3577 93.2613 93.6217 93.3135 93.868 93.4153C94.1144 93.517 94.3383 93.6663 94.5269 93.8545C94.7155 94.0428 94.8651 94.2663 94.9671 94.5124C95.0692 94.7584 95.1217 95.0222 95.1217 95.2886C95.1217 95.5549 95.0692 95.8187 94.9671 96.0648C94.8651 96.3108 94.7155 96.5344 94.5269 96.7226C94.3383 96.9109 94.1144 97.0601 93.868 97.1619C93.6217 97.2636 93.3577 97.3158 93.0911 97.3155Z" fill="#F2F2F2"/>
<path d="M101.458 104.156H44.9262C44.3887 104.156 43.8733 103.942 43.4934 103.562C43.1135 103.182 42.9001 102.667 42.9001 102.129C42.9001 101.592 43.1135 101.077 43.4934 100.697C43.8733 100.317 44.3887 100.103 44.9262 100.103H101.458C101.996 100.103 102.511 100.317 102.891 100.697C103.271 101.077 103.484 101.592 103.484 102.129C103.484 102.667 103.271 103.182 102.891 103.562C102.511 103.942 101.996 104.156 101.458 104.156Z" fill="#F2F2F2"/>
<path d="M34.1371 45.9471H17.092C16.8341 45.9468 16.5869 45.8443 16.4046 45.6621C16.2222 45.4799 16.1197 45.2328 16.1194 44.9752V29.8133C16.1197 29.5556 16.2222 29.3085 16.4046 29.1263C16.5869 28.9441 16.8341 28.8416 17.092 28.8413H34.1371C34.3949 28.8416 34.6421 28.9441 34.8245 29.1263C35.0068 29.3085 35.1094 29.5556 35.1097 29.8133V44.9752C35.1094 45.2328 35.0068 45.4799 34.8245 45.6621C34.6421 45.8443 34.3949 45.9468 34.1371 45.9471Z" fill="#E6E6E6"/>
<path d="M34.1371 76.6045H17.092C16.8341 76.6042 16.5869 76.5017 16.4046 76.3195C16.2222 76.1373 16.1197 75.8902 16.1194 75.6326V60.4707C16.1197 60.213 16.2222 59.9659 16.4046 59.7837C16.5869 59.6015 16.8341 59.499 17.092 59.4987H34.1371C34.3949 59.499 34.6421 59.6015 34.8245 59.7837C35.0068 59.9659 35.1094 60.213 35.1097 60.4707V75.6326C35.1094 75.8903 35.0068 76.1373 34.8245 76.3195C34.6421 76.5017 34.3949 76.6042 34.1371 76.6045Z" fill="#E6E6E6"/>
<path d="M34.1371 107.262H17.092C16.8341 107.262 16.5869 107.159 16.4046 106.977C16.2222 106.795 16.1197 106.548 16.1194 106.29V91.1281C16.1197 90.8704 16.2222 90.6234 16.4046 90.4411C16.5869 90.2589 16.8341 90.1564 17.092 90.1562H34.1371C34.3949 90.1564 34.6421 90.2589 34.8245 90.4411C35.0068 90.6234 35.1094 90.8704 35.1097 91.1281V106.29C35.1094 106.548 35.0068 106.795 34.8245 106.977C34.6421 107.159 34.3949 107.262 34.1371 107.262Z" fill="#E6E6E6"/>
<path d="M191.33 105.698L192.086 99.0948L195.874 65.9855L196.63 59.3821C196.993 56.1755 196.069 52.9559 194.06 50.4295C192.05 47.9032 189.12 46.2765 185.912 45.9063L99.9447 36.0829C96.7359 35.7199 93.514 36.6436 90.9859 38.6515C88.4578 40.6593 86.8299 43.5873 86.4594 46.7931L86.4575 46.8101L81.1615 93.0921L81.1596 93.1092C80.7963 96.3158 81.7207 99.5354 83.73 102.062C85.7393 104.588 88.6693 106.215 91.8773 106.585L177.845 116.408C181.054 116.771 184.276 115.848 186.804 113.84C189.332 111.832 190.96 108.904 191.33 105.698Z" fill="#E6E6E6"/>
<path d="M187.846 105.3L188.741 97.4789L192.251 66.8052L193.146 58.984C193.405 56.7006 192.747 54.4078 191.316 52.6087C189.885 50.8096 187.799 49.6512 185.514 49.3876L99.5464 39.5642C97.2613 39.3057 94.967 39.9635 93.1666 41.3933C91.3663 42.8232 90.2071 44.9083 89.9433 47.1912L89.9413 47.2082L84.6454 93.4902L84.6434 93.5074C84.3847 95.7909 85.043 98.0836 86.4739 99.8827C87.9047 101.682 89.9912 102.84 92.2757 103.104L178.243 112.927C180.528 113.186 182.823 112.528 184.623 111.098C186.423 109.668 187.583 107.583 187.846 105.3Z" fill="white"/>
<path d="M173.775 63.3355L125.922 57.8674C125.657 57.8374 125.401 57.7556 125.168 57.6265C124.934 57.4975 124.729 57.3238 124.563 57.1153C124.397 56.9069 124.274 56.6678 124.2 56.4118C124.127 56.1557 124.105 55.8877 124.135 55.6231C124.165 55.3584 124.248 55.1024 124.377 54.8695C124.506 54.6366 124.68 54.4315 124.889 54.2659C125.098 54.1003 125.337 53.9774 125.593 53.9043C125.85 53.8312 126.118 53.8092 126.383 53.8398L174.236 59.3079C174.77 59.3694 175.258 59.6404 175.592 60.0611C175.926 60.4818 176.08 61.018 176.019 61.5517C175.957 62.0855 175.687 62.5731 175.266 62.9076C174.845 63.2421 174.309 63.396 173.775 63.3355Z" fill="#E6E6E6"/>
<path d="M181.31 71.082L125.144 64.664C124.879 64.634 124.623 64.5521 124.39 64.4231C124.157 64.294 123.951 64.1203 123.785 63.9119C123.619 63.7035 123.496 63.4644 123.423 63.2083C123.349 62.9523 123.327 62.6843 123.357 62.4197C123.388 62.1551 123.47 61.899 123.599 61.6662C123.729 61.4333 123.903 61.2282 124.111 61.0626C124.32 60.897 124.56 60.7741 124.816 60.7009C125.072 60.6278 125.34 60.6059 125.605 60.6364L181.771 67.0544C182.035 67.0846 182.292 67.1666 182.524 67.2958C182.757 67.4249 182.963 67.5986 183.128 67.807C183.294 68.0154 183.417 68.2544 183.49 68.5103C183.564 68.7662 183.586 69.034 183.556 69.2985C183.525 69.5629 183.443 69.8188 183.314 70.0516C183.185 70.2843 183.011 70.4894 182.802 70.655C182.594 70.8206 182.355 70.9436 182.099 71.0168C181.843 71.0901 181.575 71.1122 181.31 71.082Z" fill="#E6E6E6"/>
<path d="M179.744 84.6377L96.9382 75.1756C96.4042 75.114 95.9164 74.8431 95.5821 74.4224C95.2479 74.0016 95.0944 73.4655 95.1555 72.9317C95.2165 72.398 95.4872 71.9103 95.9079 71.5758C96.3286 71.2414 96.8649 71.0875 97.3991 71.148L180.205 80.6101C180.47 80.6401 180.726 80.7219 180.959 80.851C181.192 80.98 181.398 81.1538 181.564 81.3622C181.73 81.5706 181.853 81.8097 181.926 82.0657C182 82.3217 182.022 82.5897 181.992 82.8544C181.961 83.119 181.879 83.375 181.75 83.6079C181.62 83.8408 181.446 84.0459 181.238 84.2115C181.029 84.3771 180.79 84.5 180.533 84.5731C180.277 84.6462 180.009 84.6682 179.744 84.6377Z" fill="#E6E6E6"/>
<path d="M179.232 91.4647L96.1605 81.9722C95.6265 81.9106 95.1387 81.6397 94.8044 81.219C94.4702 80.7982 94.3167 80.2621 94.3778 79.7283C94.4388 79.1946 94.7095 78.7069 95.1301 78.3724C95.5508 78.038 96.0872 77.8841 96.6214 77.9446L179.693 87.4371C180.227 87.4986 180.715 87.7695 181.049 88.1903C181.384 88.611 181.537 89.1472 181.476 89.6809C181.415 90.2147 181.144 90.7023 180.724 91.0368C180.303 91.3713 179.767 91.5252 179.232 91.4647Z" fill="#E6E6E6"/>
<path d="M178.22 97.9557L95.4142 88.4936C95.1494 88.4636 94.893 88.3817 94.6599 88.2527C94.4267 88.1236 94.2213 87.9499 94.0553 87.7415C93.8894 87.5331 93.7662 87.294 93.6927 87.0379C93.6193 86.7819 93.5971 86.5139 93.6274 86.2493C93.6577 85.9846 93.7398 85.7286 93.8692 85.4957C93.9986 85.2628 94.1726 85.0577 94.3814 84.8921C94.5901 84.7265 94.8295 84.6036 95.0858 84.5305C95.3421 84.4574 95.6103 84.4354 95.8751 84.466L178.681 93.928C179.215 93.9896 179.703 94.2605 180.037 94.6813C180.371 95.102 180.525 95.6382 180.464 96.1719C180.403 96.7056 180.132 97.1933 179.711 97.5278C179.291 97.8623 178.754 98.0162 178.22 97.9557Z" fill="#E6E6E6"/>
<path d="M177.708 104.783L94.6366 95.2902C94.1025 95.2286 93.6148 94.9577 93.2805 94.537C92.9462 94.1162 92.7928 93.5801 92.8538 93.0464C92.9149 92.5126 93.1855 92.0249 93.6062 91.6905C94.0269 91.356 94.5633 91.2021 95.0975 91.2626L178.169 100.755C178.434 100.785 178.69 100.867 178.924 100.996C179.157 101.125 179.362 101.299 179.528 101.507C179.694 101.716 179.817 101.955 179.891 102.211C179.964 102.467 179.986 102.735 179.956 102.999C179.926 103.264 179.844 103.52 179.714 103.753C179.585 103.986 179.411 104.191 179.202 104.357C178.993 104.522 178.754 104.645 178.498 104.718C178.241 104.791 177.973 104.813 177.708 104.783Z" fill="#E6E6E6"/>
<path d="M114.072 66.5245L97.137 64.5894C96.8809 64.5599 96.6469 64.43 96.4865 64.2282C96.326 64.0265 96.2522 63.7694 96.2812 63.5134L98.0049 48.4496C98.0345 48.1936 98.1645 47.9598 98.3664 47.7995C98.5682 47.6392 98.8255 47.5654 99.0817 47.5944L116.016 49.5295C116.273 49.5591 116.507 49.689 116.667 49.8907C116.827 50.0924 116.901 50.3495 116.872 50.6055L115.149 65.6693C115.119 65.9253 114.989 66.1591 114.787 66.3194C114.585 66.4797 114.328 66.5535 114.072 66.5245Z" fill="#FC4622"/>
<path d="M213.255 161.96H157.826C157.759 161.96 157.695 161.933 157.647 161.886C157.6 161.838 157.573 161.774 157.573 161.707C157.573 161.64 157.6 161.576 157.647 161.528C157.695 161.481 157.759 161.454 157.826 161.454H213.255C213.322 161.454 213.386 161.481 213.434 161.528C213.481 161.576 213.508 161.64 213.508 161.707C213.508 161.774 213.481 161.838 213.434 161.886C213.386 161.933 213.322 161.96 213.255 161.96Z" fill="#3F3D56"/>
<path d="M192.442 65.3346C192.356 65.6707 192.346 66.0214 192.411 66.362C192.476 66.7025 192.615 67.0247 192.818 67.3057C193.021 67.5868 193.284 67.8199 193.587 67.9887C193.89 68.1575 194.226 68.2578 194.573 68.2826L196.287 73.4241L199.668 73.1449L197.145 65.918C197.148 65.3343 196.936 64.7697 196.551 64.3312C196.165 63.8927 195.632 63.6108 195.052 63.5389C194.473 63.4669 193.887 63.61 193.405 63.941C192.924 64.272 192.581 64.7678 192.442 65.3346Z" fill="#FFB8B8"/>
<path d="M195.031 99.0047C195.427 99.3683 195.912 99.6211 196.438 99.7375C196.963 99.8538 197.509 99.8297 198.022 99.6675C198.535 99.5053 198.996 99.2107 199.359 98.8136C199.722 98.4164 199.973 97.9307 200.088 97.4054L202.765 85.1456C203.223 83.0491 203.115 80.8688 202.453 78.8276L199.319 69.1723C199.274 69.0337 199.2 68.9065 199.101 68.7993C199.002 68.6921 198.881 68.6075 198.747 68.5512C198.613 68.4949 198.467 68.4684 198.322 68.4733C198.176 68.4782 198.033 68.5145 197.903 68.5798L195.857 69.603C195.646 69.709 195.478 69.8858 195.383 70.1027C195.288 70.3196 195.272 70.5629 195.339 70.7902L195.545 71.4988C197.26 77.392 197.35 83.6387 195.805 89.5787L194.14 95.9852C194 96.522 194.009 97.0865 194.166 97.6185C194.323 98.1504 194.622 98.6296 195.031 99.0047Z" fill="#FC4622"/>
<path d="M184.316 159.315L181.423 159.315L180.047 148.162L184.317 148.162L184.316 159.315Z" fill="#FFB8B8"/>
<path d="M179.356 158.489H184.936V162H175.843C175.843 161.539 175.933 161.082 176.11 160.656C176.287 160.23 176.545 159.843 176.872 159.517C177.198 159.191 177.585 158.932 178.011 158.756C178.438 158.579 178.895 158.489 179.356 158.489Z" fill="#2F2E41"/>
<path d="M199.913 159.315L197.019 159.315L195.643 148.162L199.914 148.162L199.913 159.315Z" fill="#FFB8B8"/>
<path d="M194.952 158.489H200.532V162H191.439C191.439 161.539 191.53 161.082 191.706 160.656C191.883 160.23 192.142 159.843 192.468 159.517C192.794 159.191 193.181 158.932 193.608 158.756C194.034 158.579 194.491 158.489 194.952 158.489Z" fill="#2F2E41"/>
<path d="M191.439 80.0306C194.872 80.0306 197.655 77.2494 197.655 73.8186C197.655 70.3879 194.872 67.6067 191.439 67.6067C188.005 67.6067 185.222 70.3879 185.222 73.8186C185.222 77.2494 188.005 80.0306 191.439 80.0306Z" fill="#FFB8B8"/>
<path d="M170.183 114.331C170.226 113.987 170.345 113.657 170.53 113.363C170.715 113.07 170.962 112.821 171.253 112.633C171.545 112.446 171.875 112.324 172.218 112.278C172.562 112.231 172.912 112.26 173.243 112.363L176.717 108.202L179.763 109.695L174.775 115.503C174.564 116.048 174.161 116.496 173.642 116.764C173.123 117.031 172.524 117.099 171.958 116.955C171.392 116.811 170.899 116.464 170.571 115.98C170.244 115.496 170.106 114.91 170.183 114.331Z" fill="#FFB8B8"/>
<path d="M192.952 80.0304C193.888 80.0506 194.817 79.8727 195.679 79.5085C196.541 79.1442 197.316 78.6018 197.953 77.9169C198.59 77.232 199.075 76.4201 199.376 75.5346C199.677 74.6491 199.786 73.71 199.698 72.779C199.61 71.848 199.326 70.9462 198.864 70.1329C198.402 69.3196 197.773 68.6132 197.018 68.0601C196.264 67.5069 195.401 67.1196 194.486 66.9236C193.571 66.7276 192.624 66.7273 191.709 66.9227C190.342 66.0932 188.753 65.5351 187.16 65.6771C185.567 65.819 183.992 66.7641 183.396 68.2473C182.8 69.7304 183.44 71.6855 184.921 72.2883C185.871 72.6747 186.943 72.4873 187.957 72.3314C188.97 72.1756 190.076 72.0739 190.957 72.5964C191.839 73.119 192.236 74.52 191.446 75.1733C191.027 75.5333 190.728 76.0123 190.589 76.5464C190.449 77.0805 190.476 77.6443 190.665 78.1629C191.062 79.1888 192.146 80.013 192.952 80.0304Z" fill="#2F2E41"/>
<path d="M200.665 114.085L201.767 155.903C201.771 156.043 201.746 156.181 201.693 156.31C201.641 156.44 201.562 156.557 201.462 156.654C201.362 156.751 201.243 156.827 201.113 156.876C200.982 156.926 200.843 156.947 200.704 156.94L197.071 156.755C196.839 156.743 196.619 156.652 196.446 156.497C196.274 156.342 196.159 156.133 196.123 155.903L191.802 128.743C191.784 128.626 191.725 128.52 191.637 128.442C191.549 128.365 191.436 128.32 191.318 128.316C191.2 128.313 191.085 128.35 190.992 128.422C190.899 128.494 190.834 128.597 190.808 128.712L184.96 154.863C184.929 155.003 184.868 155.134 184.782 155.249C184.696 155.363 184.587 155.458 184.461 155.528C184.336 155.597 184.197 155.639 184.054 155.65C183.912 155.662 183.768 155.643 183.633 155.595L180.028 155.375C179.819 155.301 179.641 155.161 179.52 154.976C179.398 154.791 179.341 154.571 179.357 154.35L182.504 113.69L200.665 114.085Z" fill="#2F2E41"/>
<path d="M202.434 94.2234C203.043 87.8863 198.38 82.1545 192.025 81.7036C189.287 81.5093 185.037 81.4399 183.636 85.0261C179.415 95.8293 186.804 95.5668 184.258 104.927C181.712 114.286 179.464 114.823 182.957 115.499C186.45 116.175 202.158 120.164 201.513 113.577C201.117 109.527 201.828 100.545 202.434 94.2234Z" fill="#FC4622"/>
<path d="M184.889 83.9272C185.391 83.7332 185.935 83.6748 186.467 83.758C186.998 83.8412 187.498 84.063 187.916 84.4011C188.335 84.7392 188.656 85.1815 188.849 85.6835C189.042 86.1855 189.098 86.7294 189.013 87.2603L187.029 99.6511C186.69 101.77 185.793 103.761 184.431 105.419L177.987 113.266C177.895 113.379 177.779 113.47 177.648 113.534C177.517 113.598 177.374 113.632 177.228 113.636C177.082 113.639 176.937 113.611 176.804 113.553C176.67 113.495 176.55 113.409 176.452 113.301L174.922 111.603C174.763 111.427 174.672 111.201 174.662 110.964C174.653 110.728 174.728 110.496 174.872 110.308L175.323 109.724C179.072 104.862 181.437 99.0791 182.168 92.9855L182.957 86.4135C183.023 85.8628 183.238 85.3405 183.578 84.9026C183.918 84.4646 184.372 84.1274 184.889 83.9272Z" fill="#FC4622"/>
</g>
<defs>
<clipPath id="clip0_1_1062">
<rect width="213.508" height="162" fill="white"/>
</clipPath>
</defs>
</svg>
