<svg width="211" height="161" viewBox="0 0 211 161" fill="none" xmlns="http://www.w3.org/2000/svg">
<g clip-path="url(#clip0_1_1028)">
<path d="M82.8265 33.2782L83.5966 33.4667C83.2491 33.5166 82.9015 33.5643 82.5539 33.6075H69.7093C68.7461 33.4848 67.7881 33.3335 66.8356 33.1533C61.0974 32.0956 55.6213 29.9273 50.7151 26.7701C47.7005 24.8105 44.8266 22.4012 43.266 19.1653C41.1464 14.7713 41.8869 9.20793 44.913 5.38166C46.0147 4.00117 47.3712 2.84486 48.909 1.97549C49.1384 1.84378 49.3701 1.71889 49.6064 1.60081C52.168 0.31412 55.0447 -0.212265 57.8961 0.0839272C62.7464 0.613019 67.2217 3.57412 69.8047 7.71148C72.6603 12.2803 73.2079 17.871 73.6849 23.2368C74.5505 20.4528 77.7991 18.752 80.6501 19.3674C83.4989 19.9805 85.698 22.6396 86.0524 25.5326C86.4 28.362 85.1142 31.2663 82.9719 33.1533C82.9242 33.1942 82.8765 33.2373 82.8265 33.2782Z" fill="#F2F2F2"/>
<path d="M72.9216 33.6075H72.2786C72.2149 33.5567 72.1656 33.4902 72.1355 33.4145C72.0991 33.3282 72.0651 33.2396 72.0264 33.1533C70.116 28.5272 67.7636 24.0961 65.0021 19.9215C60.6139 13.2764 55.2386 7.33827 49.0611 2.31156C49.0083 2.274 48.9663 2.2231 48.9396 2.16406C48.9129 2.10502 48.9023 2.03995 48.9089 1.97548C48.9219 1.88945 48.9574 1.80837 49.0118 1.74044C49.0662 1.6725 49.1375 1.6201 49.2186 1.58854C49.2998 1.55699 49.3878 1.54738 49.4738 1.5607C49.5598 1.57401 49.6408 1.60978 49.7086 1.66439C53.7112 4.92276 57.3827 8.56758 60.6699 12.546C63.9589 16.5195 66.8546 20.8026 69.3162 25.335C70.6897 27.8719 71.9236 30.4819 73.0124 33.1533C73.0146 33.1601 73.0169 33.1647 73.0192 33.1715C73.0556 33.2443 73.0658 33.3274 73.048 33.4068C73.0302 33.4863 72.9855 33.5571 72.9216 33.6075Z" fill="white"/>
<path d="M126.765 33.1533H4.31636C3.17191 33.1544 2.07463 33.6092 1.26538 34.4181C0.456127 35.227 0.00103583 36.3239 0 37.4678V50.6383C0.00103583 51.7823 0.456127 52.8791 1.26538 53.688C2.07463 54.4969 3.17191 54.9518 4.31636 54.9528H126.765C127.909 54.9518 129.006 54.4969 129.816 53.688C130.625 52.8791 131.08 51.7823 131.081 50.6383V37.4678C131.08 36.3239 130.625 35.227 129.816 34.4181C129.006 33.6092 127.909 33.1544 126.765 33.1533ZM130.627 50.6383C130.625 51.6617 130.218 52.6428 129.494 53.3664C128.77 54.09 127.789 54.4972 126.765 54.4987H4.31636C3.29254 54.4972 2.31107 54.09 1.58711 53.3664C0.863159 52.6428 0.455803 51.6617 0.454354 50.6383V37.4678C0.455802 36.4444 0.863159 35.4634 1.58711 34.7397C2.31107 34.0161 3.29254 33.6089 4.31636 33.6075H126.765C127.789 33.6089 128.77 34.0161 129.494 34.7397C130.218 35.4634 130.625 36.4444 130.627 37.4678V50.6383Z" fill="#171717"/>
<path d="M126.765 86.0625H4.31636C3.17199 86.0612 2.07487 85.6063 1.26567 84.7974C0.456479 83.9886 0.00129996 82.8919 0 81.748V68.5775C0.00129996 67.4336 0.456479 66.337 1.26567 65.5281C2.07487 64.7193 3.17199 64.2643 4.31636 64.263H126.765C127.909 64.2643 129.006 64.7193 129.815 65.5281C130.625 66.337 131.08 67.4336 131.081 68.5775V81.748C131.08 82.8919 130.625 83.9886 129.815 84.7974C129.006 85.6063 127.909 86.0612 126.765 86.0625ZM4.31636 64.7172C3.29245 64.7183 2.3108 65.1254 1.58678 65.8491C0.862761 66.5728 0.455501 67.554 0.454354 68.5775V81.748C0.455502 82.7715 0.862761 83.7527 1.58678 84.4764C2.3108 85.2001 3.29245 85.6072 4.31636 85.6084H126.765C127.789 85.6072 128.77 85.2001 129.494 84.4764C130.218 83.7527 130.626 82.7715 130.627 81.748V68.5775C130.626 67.554 130.218 66.5728 129.494 65.8491C128.77 65.1254 127.789 64.7183 126.765 64.7172H4.31636Z" fill="#171717"/>
<path d="M126.765 117.172H4.31636C3.17199 117.171 2.07487 116.716 1.26567 115.907C0.456479 115.098 0.00129996 114.002 0 112.858V99.6872C0.00129996 98.5434 0.456479 97.4467 1.26567 96.6379C2.07487 95.829 3.17199 95.374 4.31636 95.3727H126.765C127.909 95.374 129.006 95.829 129.815 96.6379C130.625 97.4467 131.08 98.5434 131.081 99.6872V112.858C131.08 114.002 130.625 115.098 129.815 115.907C129.006 116.716 127.909 117.171 126.765 117.172ZM4.31636 95.8269C3.29245 95.828 2.3108 96.2351 1.58678 96.9588C0.862761 97.6825 0.455501 98.6638 0.454354 99.6872V112.858C0.455502 113.881 0.862761 114.862 1.58678 115.586C2.3108 116.31 3.29245 116.717 4.31636 116.718H126.765C127.789 116.717 128.77 116.31 129.494 115.586C130.218 114.862 130.626 113.881 130.627 112.858V99.6872C130.626 98.6638 130.218 97.6825 129.494 96.9588C128.77 96.2351 127.789 95.828 126.765 95.8269H4.31636Z" fill="#171717"/>
<path d="M24.4966 51.4331H17.2269C16.2331 51.432 15.2804 51.0369 14.5776 50.3345C13.8749 49.632 13.4796 48.6797 13.4785 47.6863V40.4198C13.4796 39.4265 13.8749 38.4741 14.5776 37.7717C15.2804 37.0693 16.2331 36.6742 17.2269 36.673H24.4966C25.4904 36.6742 26.4432 37.0693 27.1459 37.7717C27.8486 38.4741 28.2439 39.4265 28.245 40.4198V47.6863C28.2439 48.6797 27.8486 49.632 27.1459 50.3345C26.4432 51.0369 25.4904 51.432 24.4966 51.4331Z" fill="#FC4622"/>
<path d="M115.672 50.1842H35.4781C34.9961 50.1842 34.5338 49.9928 34.193 49.6521C33.8521 49.3114 33.6606 48.8494 33.6606 48.3676C33.6606 47.8858 33.8521 47.4237 34.193 47.083C34.5338 46.7423 34.9961 46.5509 35.4781 46.5509H115.672C116.154 46.5509 116.616 46.7423 116.957 47.083C117.297 47.4237 117.489 47.8858 117.489 48.3676C117.489 48.8494 117.297 49.3114 116.957 49.6521C116.616 49.9928 116.154 50.1842 115.672 50.1842Z" fill="#CCCCCC"/>
<path d="M89.5462 42.4635H35.4781C34.9961 42.4635 34.5338 42.2721 34.193 41.9315C33.8521 41.5908 33.6606 41.1287 33.6606 40.6469C33.6606 40.1651 33.8521 39.7031 34.193 39.3624C34.5338 39.0217 34.9961 38.8303 35.4781 38.8303H89.5462C90.0282 38.8303 90.4904 39.0217 90.8313 39.3624C91.1721 39.7031 91.3636 40.1651 91.3636 40.6469C91.3636 41.1287 91.1721 41.5908 90.8313 41.9315C90.4904 42.2721 90.0282 42.4635 89.5462 42.4635Z" fill="#CCCCCC"/>
<path d="M24.4966 82.5428H17.2269C16.2331 82.5417 15.2804 82.1466 14.5776 81.4442C13.8749 80.7418 13.4796 79.7894 13.4785 78.796V71.5295C13.4796 70.5362 13.8749 69.5838 14.5776 68.8814C15.2804 68.179 16.2331 67.7839 17.2269 67.7827H24.4966C25.4904 67.7839 26.4432 68.179 27.1459 68.8814C27.8486 69.5838 28.2439 70.5362 28.245 71.5295V78.796C28.2439 79.7894 27.8486 80.7418 27.1459 81.4442C26.4432 82.1466 25.4904 82.5417 24.4966 82.5428Z" fill="#FC4622"/>
<path d="M115.672 81.2939H35.4781C34.9961 81.2939 34.5338 81.1025 34.193 80.7618C33.8521 80.4211 33.6606 79.9591 33.6606 79.4773C33.6606 78.9955 33.8521 78.5334 34.193 78.1927C34.5338 77.852 34.9961 77.6606 35.4781 77.6606H115.672C116.154 77.6606 116.616 77.852 116.957 78.1927C117.297 78.5334 117.489 78.9955 117.489 79.4773C117.489 79.9591 117.297 80.4211 116.957 80.7618C116.616 81.1025 116.154 81.2939 115.672 81.2939Z" fill="#CCCCCC"/>
<path d="M89.5462 73.5733H35.4781C34.9961 73.5733 34.5338 73.3819 34.193 73.0412C33.8521 72.7005 33.6606 72.2384 33.6606 71.7566C33.6606 71.2748 33.8521 70.8128 34.193 70.4721C34.5338 70.1314 34.9961 69.94 35.4781 69.94H89.5462C90.0282 69.94 90.4904 70.1314 90.8313 70.4721C91.1721 70.8128 91.3636 71.2748 91.3636 71.7566C91.3636 72.2384 91.1721 72.7005 90.8313 73.0412C90.4904 73.3819 90.0282 73.5733 89.5462 73.5733Z" fill="#CCCCCC"/>
<path d="M24.4966 113.653H17.2269C16.2331 113.651 15.2804 113.256 14.5776 112.554C13.8749 111.851 13.4796 110.899 13.4785 109.906V102.639C13.4796 101.646 13.8749 100.694 14.5776 99.9911C15.2804 99.2887 16.2331 98.8936 17.2269 98.8925H24.4966C25.4904 98.8936 26.4432 99.2887 27.1459 99.9911C27.8486 100.694 28.2439 101.646 28.245 102.639V109.906C28.2439 110.899 27.8486 111.851 27.1459 112.554C26.4432 113.256 25.4904 113.651 24.4966 113.653Z" fill="#FC4622"/>
<path d="M115.672 112.404H35.4781C34.9961 112.404 34.5338 112.212 34.193 111.872C33.8521 111.531 33.6606 111.069 33.6606 110.587C33.6606 110.105 33.8521 109.643 34.193 109.302C34.5338 108.962 34.9961 108.77 35.4781 108.77H115.672C116.154 108.77 116.616 108.962 116.957 109.302C117.297 109.643 117.489 110.105 117.489 110.587C117.489 111.069 117.297 111.531 116.957 111.872C116.616 112.212 116.154 112.404 115.672 112.404Z" fill="#CCCCCC"/>
<path d="M89.5462 104.683H35.4781C34.9961 104.683 34.5338 104.492 34.193 104.151C33.8521 103.81 33.6606 103.348 33.6606 102.866C33.6606 102.385 33.8521 101.922 34.193 101.582C34.5338 101.241 34.9961 101.05 35.4781 101.05H89.5462C90.0282 101.05 90.4904 101.241 90.8313 101.582C91.1721 101.922 91.3636 102.385 91.3636 102.866C91.3636 103.348 91.1721 103.81 90.8313 104.151C90.4904 104.492 90.0282 104.683 89.5462 104.683Z" fill="#CCCCCC"/>
<path d="M129.491 39.7386C132.377 39.7386 134.716 37.4003 134.716 34.5158C134.716 31.6313 132.377 29.293 129.491 29.293C126.605 29.293 124.266 31.6313 124.266 34.5158C124.266 37.4003 126.605 39.7386 129.491 39.7386Z" fill="#171717"/>
<path d="M131.535 36.673C131.506 36.6731 131.476 36.6672 131.448 36.6558C131.421 36.6444 131.396 36.6276 131.375 36.6065L127.286 32.5191C127.243 32.4765 127.219 32.4188 127.219 32.3586C127.219 32.2983 127.243 32.2406 127.286 32.198C127.328 32.1554 127.386 32.1315 127.446 32.1315C127.507 32.1315 127.564 32.1554 127.607 32.198L131.696 36.2854C131.728 36.3172 131.749 36.3576 131.758 36.4017C131.767 36.4457 131.762 36.4914 131.745 36.5328C131.728 36.5743 131.699 36.6098 131.662 36.6347C131.624 36.6597 131.58 36.673 131.535 36.673Z" fill="white"/>
<path d="M127.446 36.673C127.401 36.673 127.357 36.6597 127.32 36.6347C127.283 36.6098 127.254 36.5743 127.236 36.5328C127.219 36.4914 127.215 36.4457 127.223 36.4017C127.232 36.3576 127.254 36.3172 127.286 36.2854L131.375 32.198C131.396 32.1769 131.421 32.1602 131.449 32.1488C131.476 32.1374 131.506 32.1315 131.535 32.1315C131.565 32.1315 131.595 32.1374 131.622 32.1488C131.65 32.1602 131.675 32.1769 131.696 32.198C131.717 32.2191 131.734 32.2441 131.745 32.2717C131.757 32.2992 131.763 32.3287 131.763 32.3586C131.763 32.3884 131.757 32.4179 131.745 32.4454C131.734 32.473 131.717 32.498 131.696 32.5191L127.607 36.6065C127.586 36.6276 127.561 36.6444 127.533 36.6558C127.506 36.6672 127.476 36.6731 127.446 36.673Z" fill="white"/>
<path d="M182.085 96.3916C188.799 96.3916 194.243 90.9505 194.243 84.2386C194.243 77.5266 188.799 72.0855 182.085 72.0855C175.37 72.0855 169.926 77.5266 169.926 84.2386C169.926 90.9505 175.37 96.3916 182.085 96.3916Z" fill="#FC4622"/>
<path d="M182.978 159.366V131.432C182.978 131.041 183.134 130.666 183.411 130.389C183.688 130.113 184.063 129.957 184.455 129.956H187.808C188.199 129.957 188.574 130.113 188.851 130.389C189.128 130.666 189.284 131.041 189.284 131.432V159.366C189.284 159.758 189.128 160.133 188.851 160.41C188.574 160.686 188.199 160.842 187.808 160.842H184.455C184.063 160.842 183.688 160.686 183.411 160.41C183.134 160.133 182.978 159.758 182.978 159.366Z" fill="#171717"/>
<path d="M175.892 159.366V131.432C175.892 131.041 176.048 130.666 176.325 130.389C176.602 130.113 176.977 129.957 177.368 129.956H180.722C181.113 129.957 181.488 130.113 181.765 130.389C182.042 130.666 182.198 131.041 182.198 131.432V159.366C182.198 159.758 182.042 160.133 181.765 160.41C181.488 160.686 181.113 160.842 180.722 160.842H177.368C176.977 160.842 176.602 160.686 176.325 160.41C176.048 160.133 175.892 159.758 175.892 159.366Z" fill="#171717"/>
<path d="M189.84 134.717H174.605C174.184 134.716 173.779 134.548 173.481 134.25C173.183 133.952 173.016 133.548 173.015 133.127V108.388C173.015 105.947 173.985 103.606 175.712 101.88C177.439 100.154 179.781 99.1843 182.223 99.1843C184.665 99.1843 187.007 100.154 188.734 101.88C190.46 103.606 191.431 105.947 191.431 108.388V133.127C191.43 133.548 191.262 133.952 190.964 134.25C190.666 134.548 190.262 134.716 189.84 134.717Z" fill="#171717"/>
<path d="M171.817 89.6109L171.83 89.1567C170.985 89.1332 170.239 89.0802 169.679 88.6713C169.521 88.5488 169.39 88.3935 169.297 88.2161C169.203 88.0386 169.149 87.8432 169.138 87.643C169.129 87.5207 169.147 87.3978 169.193 87.2838C169.238 87.1698 169.309 87.0678 169.4 86.9857C169.772 86.6719 170.37 86.7735 170.806 86.9733L171.182 87.1456L170.461 81.8796L170.011 81.9412L170.624 86.4207C170.032 86.2466 169.483 86.3216 169.107 86.6389C168.963 86.7649 168.849 86.9225 168.776 87.0994C168.703 87.2764 168.671 87.4679 168.684 87.659C168.698 87.9279 168.77 88.1907 168.895 88.429C169.021 88.6672 169.197 88.8751 169.411 89.0381C170.131 89.5636 171.066 89.5898 171.817 89.6109Z" fill="#171717"/>
<path d="M175.509 82.3275H173.062V82.7817H175.509V82.3275Z" fill="#171717"/>
<path d="M186.894 133.11C186.751 132.979 186.635 132.821 186.554 132.645C186.472 132.469 186.426 132.279 186.419 132.085L185.261 104.175C185.253 103.982 185.284 103.788 185.35 103.606C185.417 103.424 185.519 103.257 185.65 103.114C185.782 102.972 185.94 102.856 186.116 102.775C186.292 102.693 186.482 102.647 186.676 102.639L190.026 102.5C190.417 102.485 190.798 102.625 191.086 102.89C191.375 103.155 191.546 103.523 191.562 103.914L192.72 131.824C192.736 132.215 192.596 132.596 192.33 132.884C192.065 133.172 191.697 133.343 191.306 133.36L187.956 133.498C187.849 133.503 187.742 133.496 187.636 133.478C187.359 133.429 187.101 133.301 186.894 133.11Z" fill="#FC4622"/>
<path d="M191.169 114.22H185.717C185.326 114.22 184.95 114.064 184.673 113.787C184.397 113.511 184.241 113.136 184.24 112.744V105.024C184.24 103.909 184.683 102.841 185.471 102.053C186.26 101.265 187.329 100.823 188.443 100.823C189.558 100.823 190.627 101.265 191.415 102.053C192.203 102.841 192.646 103.909 192.646 105.024V112.744C192.646 113.136 192.49 113.511 192.213 113.787C191.936 114.064 191.561 114.22 191.169 114.22Z" fill="#171717"/>
<path d="M156.157 124.563L154.019 121.981C153.77 121.679 153.651 121.291 153.688 120.901C153.724 120.512 153.914 120.153 154.216 119.903L175.748 102.096C176.049 101.847 176.438 101.728 176.828 101.764C177.218 101.801 177.577 101.991 177.827 102.293L179.964 104.875C180.088 105.024 180.181 105.197 180.238 105.382C180.295 105.567 180.315 105.762 180.296 105.955C180.278 106.148 180.222 106.335 180.131 106.506C180.041 106.678 179.917 106.829 179.768 106.953L158.236 124.76C157.976 124.974 157.652 125.093 157.315 125.098C156.979 125.103 156.651 124.993 156.386 124.787C156.301 124.721 156.225 124.646 156.157 124.563Z" fill="#FC4622"/>
<path d="M172.035 112.965L168.582 108.748C168.334 108.445 168.217 108.056 168.256 107.667C168.294 107.277 168.486 106.919 168.789 106.671L174.765 101.78C175.193 101.431 175.684 101.169 176.213 101.009C176.741 100.849 177.296 100.795 177.845 100.85C178.394 100.905 178.927 101.067 179.414 101.328C179.9 101.588 180.331 101.942 180.68 102.369C181.03 102.796 181.292 103.288 181.452 103.816C181.611 104.344 181.665 104.898 181.61 105.447C181.556 105.996 181.393 106.529 181.132 107.016C180.871 107.502 180.517 107.932 180.09 108.281L174.113 113.172C173.81 113.42 173.421 113.537 173.032 113.498C172.642 113.459 172.284 113.268 172.035 112.965Z" fill="#171717"/>
<path d="M157.362 113.991L157.301 114.044L155.833 112.367C155.721 112.24 155.585 112.135 155.433 112.06C155.282 111.985 155.116 111.941 154.947 111.93C154.778 111.918 154.608 111.941 154.448 111.995C154.287 112.049 154.139 112.135 154.012 112.246L150.457 115.356C150.2 115.581 150.042 115.9 150.019 116.241C149.997 116.582 150.111 116.919 150.336 117.176L158.392 126.376C158.504 126.504 158.639 126.608 158.791 126.683C158.943 126.758 159.108 126.802 159.277 126.814C159.447 126.825 159.616 126.803 159.777 126.748C159.937 126.694 160.085 126.609 160.213 126.497L163.767 123.387C164.025 123.162 164.182 122.844 164.205 122.502C164.228 122.161 164.114 121.825 163.889 121.567L158.346 115.238L158.408 115.184L157.362 113.991Z" fill="#171717"/>
<path d="M154.405 112.782L153.962 113.169C154.026 113.201 154.081 113.248 154.123 113.307C154.164 113.365 154.19 113.433 154.2 113.504C154.209 113.575 154.2 113.647 154.175 113.714C154.149 113.781 154.108 113.841 154.054 113.888L152.112 115.587C152.058 115.634 151.993 115.667 151.923 115.684C151.854 115.7 151.781 115.699 151.712 115.68C151.643 115.662 151.579 115.627 151.526 115.578C151.474 115.529 151.434 115.468 151.411 115.401L150.998 115.762C150.907 115.842 150.833 115.938 150.779 116.047C150.726 116.155 150.694 116.272 150.686 116.393C150.678 116.513 150.694 116.634 150.732 116.748C150.771 116.863 150.832 116.968 150.911 117.059L158.584 125.822C158.745 126.005 158.972 126.117 159.215 126.133C159.458 126.149 159.698 126.068 159.882 125.908L163.288 122.927C163.472 122.767 163.584 122.54 163.6 122.297C163.616 122.054 163.535 121.814 163.375 121.631L155.702 112.868C155.541 112.685 155.314 112.573 155.071 112.557C154.828 112.54 154.588 112.621 154.405 112.782Z" fill="white"/>
<path d="M185.133 86.2962C185.766 85.239 186.261 84.0741 186.026 82.8215C185.816 81.7029 185.011 80.8318 183.853 80.7174C183.155 80.6486 182.461 80.8347 181.78 80.9559C181.222 81.0539 180.655 81.0906 180.088 81.0654C178.949 81.0136 177.832 80.7305 176.805 80.2334C175.763 79.746 174.838 79.0413 174.091 78.1666C173.344 77.2919 172.794 76.2676 172.476 75.1624C171.785 72.6478 172.298 69.7923 173.939 67.7454L173.37 67.5951L174.111 70.0304C174.126 70.0803 174.151 70.1263 174.186 70.165C174.221 70.2036 174.264 70.2339 174.312 70.2534C174.36 70.273 174.412 70.2815 174.464 70.2781C174.516 70.2747 174.567 70.2596 174.612 70.234C175.956 69.3851 177.458 68.818 179.028 68.5671C180.598 68.3163 182.203 68.3868 183.744 68.7745C184.616 68.9933 185.457 69.3168 186.25 69.7379C186.638 69.9436 186.982 69.3558 186.594 69.1497C185.104 68.3727 183.472 67.9059 181.796 67.7776C180.121 67.6493 178.436 67.8621 176.845 68.4032C175.939 68.7119 175.074 69.1291 174.268 69.6457L174.768 69.8493L174.027 67.414C174.01 67.3571 173.979 67.3054 173.937 67.264C173.894 67.2226 173.842 67.1929 173.785 67.1777C173.727 67.1626 173.667 67.1626 173.61 67.1776C173.552 67.1927 173.5 67.2224 173.457 67.2637C172.694 68.2315 172.135 69.3437 171.813 70.5333C171.491 71.7229 171.414 72.9653 171.585 74.1857C171.751 75.3885 172.169 76.5427 172.812 77.5727C173.455 78.6026 174.309 79.4851 175.317 80.1621C176.325 80.8417 177.457 81.3149 178.648 81.5543C179.84 81.7937 181.067 81.7946 182.258 81.5569C182.925 81.4287 183.682 81.2452 184.336 81.5244C184.574 81.6388 184.783 81.8041 184.949 82.0085C185.115 82.2129 185.234 82.4513 185.298 82.7069C185.669 83.963 185.038 85.1558 184.393 86.2001L185.133 86.2962Z" fill="#171717"/>
<path d="M179.042 110.19L179.034 110.19C178.906 110.19 178.783 110.146 178.684 110.067C178.585 109.987 178.516 109.876 178.489 109.752L178.533 100.29C178.504 100.162 178.52 100.028 178.578 99.9105C178.636 99.7926 178.732 99.6981 178.851 99.6426C180.499 98.8688 182.202 98.7648 184.056 99.3252C184.198 99.3673 184.318 99.463 184.391 99.592C184.463 99.721 184.482 99.8732 184.444 100.016L179.59 109.768C179.56 109.889 179.489 109.997 179.389 110.074C179.29 110.15 179.168 110.191 179.042 110.19Z" fill="#CCCCCC"/>
<path d="M210.773 160.998H154.433C154.373 160.998 154.315 160.974 154.272 160.932C154.23 160.889 154.206 160.831 154.206 160.771C154.206 160.711 154.23 160.653 154.272 160.611C154.315 160.568 154.373 160.544 154.433 160.544H210.773C210.833 160.544 210.891 160.568 210.934 160.611C210.976 160.653 211 160.711 211 160.771C211 160.831 210.976 160.889 210.934 160.932C210.891 160.974 210.833 160.998 210.773 160.998Z" fill="#171717"/>
</g>
<defs>
<clipPath id="clip0_1_1028">
<rect width="211" height="160.998" fill="white"/>
</clipPath>
</defs>
</svg>
