<svg width="38" height="38" viewBox="0 0 38 38" fill="none" xmlns="http://www.w3.org/2000/svg">
<path d="M19 0.078125C8.56836 0.078125 0.0820312 8.53125 0.0820312 18.9199C0.0820312 29.3086 8.56836 37.7676 19 37.7676C29.4316 37.7676 37.918 29.3145 37.918 18.9248C37.918 8.53516 29.4316 0.078125 19 0.078125ZM19 36.2002C9.42969 36.2002 1.64453 28.4482 1.64453 18.9199C1.64453 9.3916 9.42969 1.64062 19 1.64062C28.5703 1.64062 36.3555 9.39258 36.3555 18.9199C36.3555 28.4473 28.5703 36.2002 19 36.2002ZM31.459 26.083C31.3551 26.2614 31.1848 26.3914 30.9854 26.4447C30.7859 26.4979 30.5735 26.4701 30.3945 26.3672L28.4414 25.2432C28.2618 25.1396 28.1307 24.9689 28.0769 24.7686C28.0232 24.5683 28.0512 24.3549 28.1548 24.1753C28.2584 23.9957 28.4291 23.8646 28.6294 23.8108C28.8296 23.7571 29.043 23.7851 29.2227 23.8887L30.4834 24.6123C31.2456 23.0803 31.691 21.4103 31.793 19.7021H30.3457C30.1385 19.7021 29.9398 19.6198 29.7933 19.4733C29.6468 19.3268 29.5645 19.1281 29.5645 18.9209C29.5645 18.7137 29.6468 18.515 29.7933 18.3685C29.9398 18.222 30.1385 18.1396 30.3457 18.1396H31.793C31.6895 16.4288 31.239 14.7568 30.4688 13.2256L29.2119 13.9482C29.0933 14.0171 28.9585 14.0532 28.8213 14.0527C28.6489 14.0532 28.4813 13.9966 28.3444 13.8919C28.2076 13.7871 28.1092 13.64 28.0646 13.4735C28.02 13.3071 28.0318 13.1305 28.098 12.9714C28.1642 12.8122 28.2812 12.6795 28.4307 12.5937L29.6807 11.876C28.7279 10.4483 27.4994 9.2255 26.0674 8.2793L25.3477 9.52734C25.2396 9.69739 25.0699 9.8191 24.8742 9.86704C24.6785 9.91498 24.4718 9.88544 24.2974 9.7846C24.1229 9.68376 23.9942 9.51942 23.938 9.32589C23.8819 9.13237 23.9027 8.92464 23.9961 8.74609L24.7178 7.50098C23.1781 6.73263 21.4989 6.28353 19.7812 6.18066V7.62207C19.7812 7.82927 19.6989 8.02798 19.5524 8.1745C19.4059 8.32101 19.2072 8.40332 19 8.40332C18.7928 8.40332 18.5941 8.32101 18.4476 8.1745C18.3011 8.02798 18.2188 7.82927 18.2188 7.62207V6.18066C16.5009 6.28279 14.8214 6.73123 13.2812 7.49902L14.0029 8.74609C14.0609 8.83497 14.1001 8.93473 14.1183 9.03928C14.1364 9.14383 14.1331 9.25098 14.1085 9.35419C14.0838 9.4574 14.0384 9.55452 13.975 9.63961C13.9116 9.7247 13.8316 9.79599 13.7397 9.84912C13.6479 9.90225 13.5462 9.93611 13.4408 9.94864C13.3354 9.96117 13.2286 9.95211 13.1269 9.922C13.0251 9.89189 12.9306 9.84136 12.849 9.77351C12.7674 9.70566 12.7005 9.6219 12.6523 9.52734L11.9287 8.2793C10.4969 9.2254 9.2685 10.4479 8.31543 11.875L9.56543 12.5937C9.65437 12.645 9.73233 12.7134 9.79487 12.7948C9.8574 12.8762 9.90329 12.9692 9.9299 13.0683C9.95652 13.1675 9.96334 13.2709 9.94998 13.3727C9.93663 13.4745 9.90335 13.5727 9.85205 13.6616C9.80075 13.7506 9.73244 13.8285 9.65101 13.8911C9.56959 13.9536 9.47664 13.9995 9.37748 14.0261C9.27832 14.0527 9.17488 14.0595 9.07308 14.0462C8.97129 14.0328 8.87312 13.9995 8.78418 13.9482L7.52637 13.2256C6.75798 14.7569 6.3091 16.4285 6.20703 18.1387H7.6582C7.8654 18.1387 8.06412 18.221 8.21063 18.3675C8.35714 18.514 8.43945 18.7127 8.43945 18.9199C8.43945 19.1271 8.35714 19.3258 8.21063 19.4723C8.06412 19.6189 7.8654 19.7012 7.6582 19.7012H6.20703C6.312 21.4118 6.76142 23.0836 7.52832 24.6162L8.78808 23.8926C8.87702 23.8413 8.97519 23.808 9.07699 23.7946C9.17879 23.7813 9.28222 23.7881 9.38138 23.8147C9.48054 23.8413 9.57349 23.8872 9.65492 23.9498C9.73635 24.0123 9.80466 24.0903 9.85596 24.1792C9.90726 24.2681 9.94053 24.3663 9.95389 24.4681C9.96725 24.5699 9.96043 24.6733 9.93381 24.7725C9.9072 24.8717 9.86131 24.9646 9.79877 25.046C9.73624 25.1275 9.65827 25.1958 9.56933 25.2471L7.61621 26.3711C7.43732 26.4737 7.22514 26.5014 7.02592 26.4481C6.82671 26.3949 6.65661 26.265 6.55273 26.0869C5.29834 23.9221 4.63459 21.4658 4.62793 18.9639C4.62793 18.9502 4.62793 18.9375 4.62793 18.9238C4.62793 18.9102 4.62793 18.9004 4.62793 18.8887C4.62616 16.4132 5.27151 13.9802 6.5 11.8311C6.511 11.806 6.52339 11.7815 6.53711 11.7578C6.55265 11.731 6.56994 11.7052 6.58887 11.6807C7.83935 9.56534 9.60821 7.80354 11.7285 6.56152C11.7519 6.5438 11.7764 6.52749 11.8018 6.5127C11.8271 6.49832 11.8532 6.48528 11.8799 6.47363C14.0377 5.24453 16.4776 4.59676 18.9609 4.59375H19.0312C21.5145 4.59676 23.9545 5.24453 26.1123 6.47363C26.139 6.48528 26.1651 6.49832 26.1904 6.5127C26.2158 6.52749 26.2403 6.5438 26.2637 6.56152C28.3842 7.80323 30.1531 9.5651 31.4033 11.6807C31.4222 11.7052 31.4395 11.731 31.4551 11.7578C31.4688 11.7822 31.4814 11.8066 31.4922 11.8311C32.7255 13.9776 33.3762 16.4092 33.3799 18.8848C33.3799 18.8965 33.3799 18.9082 33.3799 18.9209C33.3799 18.9336 33.3799 18.9463 33.3799 18.96C33.3732 21.4612 32.7098 23.9167 31.4561 26.0811L31.459 26.083ZM22.0518 18.918C22.0495 18.4504 21.9398 17.9897 21.7312 17.5713C21.5226 17.1529 21.2206 16.788 20.8486 16.5049C20.4765 16.2218 20.0444 16.0279 19.5855 15.9384C19.1267 15.8488 18.6534 15.8659 18.2021 15.9883L15.5107 11.3457C15.4619 11.2523 15.3947 11.1698 15.3131 11.1031C15.2316 11.0364 15.1374 10.9869 15.0362 10.9575C14.935 10.9282 14.8289 10.9196 14.7243 10.9323C14.6197 10.945 14.5187 10.9787 14.4275 11.0315C14.3363 11.0842 14.2567 11.1548 14.1935 11.2391C14.1302 11.3234 14.0847 11.4196 14.0597 11.522C14.0346 11.6243 14.0305 11.7307 14.0476 11.8346C14.0647 11.9386 14.1027 12.038 14.1592 12.127L16.8516 16.7686C16.4246 17.1929 16.1335 17.7346 16.0151 18.3248C15.8967 18.915 15.9565 19.5271 16.1867 20.0833C16.417 20.6394 16.8074 21.1146 17.3083 21.4484C17.8092 21.7822 18.398 21.9596 19 21.958C19.2688 21.9578 19.5363 21.9223 19.7959 21.8525L20.3115 22.7432C20.4196 22.9132 20.5892 23.0349 20.785 23.0829C20.9807 23.1308 21.1874 23.1013 21.3618 23.0004C21.5363 22.8996 21.665 22.7352 21.7211 22.5417C21.7773 22.3482 21.7565 22.1405 21.6631 21.9619L21.1484 21.0723C21.4336 20.7905 21.6602 20.4551 21.8153 20.0853C21.9703 19.7156 22.0507 19.3189 22.0518 18.918ZM17.5176 18.918C17.5185 18.6588 17.5875 18.4044 17.7175 18.1803C17.8476 17.9561 18.0342 17.77 18.2588 17.6406C18.5404 17.4795 18.8673 17.4157 19.1889 17.4592C19.5104 17.5027 19.8087 17.651 20.0373 17.8812C20.266 18.1114 20.4124 18.4106 20.4538 18.7324C20.4952 19.0543 20.4292 19.3808 20.2662 19.6613C20.1032 19.9419 19.8522 20.1608 19.5521 20.2842C19.252 20.4077 18.9196 20.4287 18.6064 20.344C18.2931 20.2593 18.0166 20.0737 17.8196 19.8159C17.6225 19.558 17.516 19.2424 17.5166 18.918H17.5176ZM23.5342 27.1699H14.4658C14.2586 27.1699 14.0599 27.2522 13.9134 27.3987C13.7669 27.5453 13.6846 27.744 13.6846 27.9512V32.4658C13.6846 32.673 13.7669 32.8717 13.9134 33.0182C14.0599 33.1648 14.2586 33.2471 14.4658 33.2471H23.5342C23.7414 33.2471 23.9401 33.1648 24.0866 33.0182C24.2331 32.8717 24.3154 32.673 24.3154 32.4658V27.9512C24.3154 27.744 24.2331 27.5453 24.0866 27.3987C23.9401 27.2522 23.7414 27.1699 23.5342 27.1699ZM22.7529 31.6846H15.2471V28.7324H22.7529V31.6846Z" fill="#171717"/>
</svg>
