<svg width="47" height="47" viewBox="0 0 47 47" fill="none" xmlns="http://www.w3.org/2000/svg">
<path d="M39.4999 15.9998H25.2644L36.3471 1.45445C36.5752 1.1552 36.5459 0.732161 36.2773 0.467406C36.0104 0.201863 35.5873 0.177136 35.2896 0.408186L15.2421 15.9998H10.0004L0 23.4997L10.0004 30.9996H22.2358L11.1531 45.545C10.9251 45.8442 10.9544 46.2673 11.2229 46.532C11.3676 46.676 11.5582 46.7495 11.7502 46.7495C11.9123 46.7495 12.075 46.6977 12.2107 46.592L32.2581 30.9996H39.5001C43.6355 30.9996 47 27.6352 47 23.4997C47 19.3643 43.6353 15.9998 39.4999 15.9998ZM4.25026 24.8123L2.50045 23.4999L4.25026 22.1873V24.8123ZM9.50017 28.7496L5.75012 25.9372V21.0623L9.50017 18.2498V28.7496ZM11.0002 17.4996H15.0794L16.9124 20.4997H11.0002V17.4996ZM11.0002 21.9997H17.8296L19.6626 24.9997H11.0002V21.9997ZM11.0002 29.4998V26.4997H20.5791L22.4121 29.4998H11.0002ZM15.8414 41.8671L24.3471 30.7042C24.5339 30.4582 24.5511 30.123 24.3906 29.8589L16.4893 16.9304L31.6587 5.1322L23.153 16.2951C22.9662 16.5411 22.949 16.8763 23.1095 17.1404L31.0099 30.0688L15.8414 41.8671ZM35 29.4996H32.4208L30.5878 26.4996H35V29.4996ZM35 24.9997H29.6706L27.8376 21.9997H35V24.9997ZM35 20.4997H26.9211L25.0881 17.4996H35V20.4997ZM38.7501 29.4996H36.5V17.4998H38.7501V29.4996ZM40.2499 29.448V17.5516C43.2049 17.9228 45.4998 20.4458 45.4998 23.4999C45.4998 26.5539 43.2049 29.0767 40.2499 29.448Z" fill="black"/>
</svg>
