<svg width="37" height="30" viewBox="0 0 37 30" fill="none" xmlns="http://www.w3.org/2000/svg">
<path d="M19.0312 0.625C20.2048 0.625 20.0938 1.57635 20.0938 2.74996L20.1646 4.87498H32.3125V6.99993H30.9318L36.5625 20.2812C36.5625 22.335 33.1771 24 29.6563 24C26.1355 24 22.75 22.335 22.75 20.2812L28.3807 6.99993H20.2354L20.8751 26.1914C24.9787 26.4919 28.0625 27.7751 28.0625 29.3124H10C10 27.7751 13.0838 26.4919 17.1874 26.1914L17.8271 6.99993L8.61931 7L14.25 20.2812C14.25 22.335 10.8646 24 7.34377 24C3.82296 24 0.4375 22.335 0.4375 20.2812L6.06824 7L4.68755 6.99993V4.87498H17.8979L17.9688 2.74996C17.9688 1.57635 17.8576 0.625 19.0312 0.625ZM34.0813 20.2812L30.1875 10.6438V20.2812H34.0813ZM25.2312 20.2812H29.125V10.6438L25.2312 20.2812ZM11.7688 20.2812L7.87505 10.6438V20.2812H11.7688ZM2.91872 20.2812H6.8125V10.6438L2.91872 20.2812Z" fill="#171717"/>
</svg>
